<?xml version="1.0" encoding="UTF-8" standalone="no"?>
<!-- Created with Inkscape (http://www.inkscape.org/) -->

<svg
   width="253.40901mm"
   height="67.650345mm"
   viewBox="0 0 253.40901 67.650345"
   version="1.1"
   id="svg1"
   xml:space="preserve"
   xmlns:inkscape="http://www.inkscape.org/namespaces/inkscape"
   xmlns:sodipodi="http://sodipodi.sourceforge.net/DTD/sodipodi-0.dtd"
   xmlns="http://www.w3.org/2000/svg"
   xmlns:svg="http://www.w3.org/2000/svg"><sodipodi:namedview
     id="namedview1"
     pagecolor="#ffffff"
     bordercolor="#000000"
     borderopacity="0.25"
     inkscape:showpageshadow="2"
     inkscape:pageopacity="0.0"
     inkscape:pagecheckerboard="0"
     inkscape:deskcolor="#d1d1d1"
     inkscape:document-units="mm"><inkscape:page
       x="0"
       y="0"
       width="253.40901"
       height="67.650345"
       id="page2"
       margin="0"
       bleed="0" /></sodipodi:namedview><defs
     id="defs1" /><g
     inkscape:label="Camada 1"
     inkscape:groupmode="layer"
     id="layer1"
     transform="translate(644.67262,-217.10838)"><g
       id="g9-8-6"
       transform="translate(-331.16222,-7.4304537)"
       style="fill:#ffffff;stroke:none"><path
         style="fill:#ffffff;fill-opacity:1;stroke:none;stroke-opacity:1"
         d="m -165.25827,292.02109 c -0.0974,-0.15764 -0.0204,-0.61359 0.17111,-1.01322 0.28385,-0.59223 0.59242,-0.76531 1.6686,-0.93595 4.7816,-0.75817 5.66367,-1.18193 6.79179,-3.2629 0.91538,-1.68856 7.25945,-21.9892 6.96406,-22.28459 -0.15693,-0.15693 -0.0369,-0.29478 -1.45865,1.67561 -2.96454,4.10861 -6.50131,7.32411 -9.62957,8.75484 -3.99842,1.8287 -8.28868,0.20011 -9.56057,-3.62921 -0.31378,-0.94469 -0.46813,-2.19579 -0.4609,-3.736 0.006,-1.27362 -0.0834,-2.31567 -0.19871,-2.31567 -0.11526,0 -0.99814,0.94544 -1.96194,2.10098 -2.60104,3.11848 -6.31227,6.50327 -8.04448,7.33688 -2.14033,1.03001 -4.59533,1.15606 -5.8552,0.30064 -1.1308,-0.76779 -2.04449,-2.33295 -2.28701,-3.91767 -0.10021,-0.65484 -0.0367,-2.36377 0.14115,-3.79761 0.17785,-1.43383 0.26644,-2.6639 0.19687,-2.73347 -0.0696,-0.0696 -0.90923,0.93993 -1.8659,2.24333 -2.06514,2.81363 -5.87034,6.51273 -7.74037,7.52455 -4.71647,2.55196 -8.81709,1.56736 -10.72573,-2.57534 -0.54195,-1.17631 -0.60711,-1.70411 -0.588,-4.7625 0.0184,-2.95254 0.12397,-3.77656 0.74519,-5.81938 1.57707,-5.18602 4.16037,-9.51032 7.82483,-13.09833 2.40598,-2.35579 4.17168,-3.55645 6.94514,-4.72265 1.46918,-0.61777 2.01306,-0.6987 4.70397,-0.69992 2.4483,-0.001 3.23824,0.0958 4.04361,0.49591 1.10771,0.55037 2.21906,1.53465 2.87401,2.5454 l 0.42861,0.66146 1.1642,-1.24622 c 1.54033,-1.64885 3.11147,-2.31739 5.84456,-2.48691 2.84425,-0.17641 3.11189,0.0114 2.15934,1.51545 -1.04501,1.65003 -3.30475,6.5074 -5.27301,11.33446 -2.97122,7.28679 -4.02013,12.24567 -2.81997,13.3318 1.98705,1.79825 6.62614,-2.61502 12.19768,-11.60394 4.6533,-7.50744 6.14571,-9.29248 9.82887,-11.75612 5.69409,-3.80871 11.80828,-4.02514 14.86896,-0.52632 l 1.143,1.30662 1.44246,-1.39517 c 1.65481,-1.60055 2.78601,-2.0335 5.86436,-2.2445 2.6172,-0.17938 2.74323,0.0628 1.29946,2.49722 -1.98623,3.34906 -5.64089,12.23044 -7.68746,18.68175 -1.10312,3.4773 -2.6641,8.76448 -2.6641,9.02356 0,0.4265 0.7819,0.0327 2.48999,-1.25393 6.25674,-4.71308 11.48943,-11.52056 15.14523,-19.70325 2.8411,-6.35915 3.95235,-7.90373 6.11935,-8.50556 1.14807,-0.31885 5.33205,-0.36331 5.80683,-0.0617 0.23602,0.14994 -0.22242,1.27441 -1.67548,4.10957 -2.29264,4.47331 -5.56531,12.48588 -6.4424,15.77308 -1.07442,4.02679 -0.476,6.36116 1.6307,6.36116 1.28575,0 2.47175,-0.73596 4.28705,-2.66028 2.89879,-3.07287 5.4673,-7.29232 9.01057,-14.80222 2.7822,-5.89684 4.27982,-8.01213 6.25769,-8.83853 1.1307,-0.47244 5.507866,-0.81915 6.006526,-0.47577 0.27312,0.18806 -0.0548,1.04516 -1.49871,3.91762 -4.247186,8.44903 -7.157296,16.4471 -7.254016,19.93675 -0.0365,1.31822 0.0555,1.70383 0.5166,2.16495 1.55724,1.55724 4.880821,-1.00135 9.264356,-7.13197 0.90334,-1.26335 2.1416,-3.18998 2.75171,-4.28138 3.39517,-6.07353 5.77506,-9.07899 9.19945,-11.6176 5.0391,-3.73565 11.26233,-4.70714 15.31743,-2.39118 1.95801,1.11826 2.82135,2.67511 2.79962,5.04851 -0.0317,3.45868 -2.46897,6.73905 -6.60638,8.89157 -3.16702,1.64767 -5.73748,2.28412 -9.09695,2.25244 -1.52797,-0.0144 -3.01258,-0.0652 -3.29913,-0.11278 -0.72003,-0.11967 -1.21318,1.40506 -1.39186,4.30338 -0.28892,4.68662 1.62908,7.09921 5.6553,7.1136 5.53073,0.0198 11.80611,-4.84173 16.888425,-13.08336 0.86947,-1.40997 1.69121,-2.63178 1.82607,-2.71513 0.39809,-0.24603 0.95868,0.75401 0.95868,1.7102 0,1.54012 -2.14037,5.05163 -5.646425,9.26357 -3.51946,4.22802 -7.24535,7.15285 -10.93894,8.58708 -8.46657,3.28758 -16.12706,-0.34443 -16.93003,-8.02691 -0.0901,-0.86179 -0.24522,-1.61723 -0.34476,-1.67875 -0.0996,-0.0615 -0.64775,0.50772 -1.21823,1.26498 -1.64409,2.18239 -5.649766,6.2273 -7.421526,7.4942 -1.95126,1.39526 -3.42705,1.95243 -5.17148,1.95243 -1.5265,0 -2.53664,-0.46059 -3.4869,-1.58992 -1.02642,-1.21983 -1.29104,-2.47364 -1.18869,-5.63222 0.0505,-1.55794 0.019,-2.83249 -0.07,-2.83233 -0.089,1.7e-4 -0.84287,0.88955 -1.67533,1.9764 -2.2479,2.93483 -5.64356,6.033 -7.74817,7.06937 -1.57537,0.77575 -2.02843,0.87641 -3.94481,0.87641 -1.97948,0 -2.26222,-0.0682 -3.29886,-0.79618 -0.69028,-0.48471 -1.39823,-1.31134 -1.80974,-2.11312 -0.6214,-1.21074 -0.67413,-1.57862 -0.65383,-4.56164 0.0121,-1.78458 -0.0474,-3.24101 -0.13229,-3.23651 -0.0849,0.005 -0.55263,0.53689 -1.03939,1.18309 -2.7146,3.60381 -7.82933,8.2419 -11.64494,10.55976 l -1.53858,0.93463 -0.82085,3.11603 c -2.01779,7.65975 -1.71511,9.06858 2.04394,9.51378 1.71596,0.20323 1.89292,0.34235 1.63545,1.2858 l -0.21371,0.78311 -3.28398,-0.1323 c -4.84948,-0.19535 -10.46818,-0.16123 -14.69732,0.0893 -2.62275,0.15534 -3.79335,0.1359 -3.91755,-0.0651 z m -31.64755,-23.03533 c 3.07323,-1.56784 7.58557,-7.7907 11.45803,-15.80149 1.69025,-3.49653 1.91611,-4.53784 1.25299,-5.77689 -0.90606,-1.693 -3.8806,-1.97671 -6.58035,-0.62763 -5.06627,2.53165 -10.87828,12.36531 -10.87828,18.40556 0,3.77079 1.87059,5.2682 4.74761,3.80045 z m 40.0098,-0.76842 c 1.83568,-1.4395 4.10732,-4.06915 6.08532,-7.04439 2.08448,-3.13538 6.04269,-11.03857 6.04269,-12.06516 0,-1.94092 -1.41177,-3.14838 -3.6811,-3.14838 -2.18018,0 -3.98569,0.85558 -6.23157,2.953 -6.1943,5.78479 -9.98785,16.85804 -6.85024,19.99564 0.5716,0.5716 0.83893,0.64589 1.94266,0.53983 0.99449,-0.0956 1.59476,-0.36992 2.69224,-1.23054 z m 79.887336,-12.37871 c 5.34876,-2.50622 8.5519,-9.45744 4.91162,-10.65884 -2.42717,-0.80104 -5.87972,1.4871 -8.76167,5.80671 -1.95324,2.92758 -2.42128,4.56478 -1.55316,5.4329 0.69889,0.6989 3.25957,0.42366 5.40321,-0.58077 z m -167.343796,24.75156 c -7.12059,-1.67162 -8.38286,-9.75987 -3.90223,-9.75987 1.38181,0 2.14432,0.47634 4.67558,2.9208 2.74149,2.64748 3.68538,3.16733 5.73544,3.15881 1.92968,-0.008 3.25787,-0.69167 4.99786,-2.57249 2.5502,-2.75661 3.60852,-5.07564 11.26014,-24.67378 5.04466,-12.9209 7.58577,-18.67066 9.05322,-20.48467 0.48243,-0.59636 0.74063,-1.13667 0.60703,-1.27027 -0.27785,-0.27785 -6.07407,0.17118 -9.36204,0.72526 -5.73832,0.96702 -9.07749,3.2667 -9.61375,6.62099 -0.23386,1.46277 0.29704,3.24459 1.225,4.11144 0.4239,0.39598 0.77072,0.88616 0.77072,1.08928 0,0.20312 -0.44648,0.80311 -0.99219,1.3333 -1.65148,1.60455 -3.23195,1.93156 -4.77842,0.98871 -1.16221,-0.70858 -1.67277,-2.02315 -1.68089,-4.32792 -0.0115,-3.25024 1.3398,-5.98864 4.31383,-8.74213 3.25458,-3.01325 6.85052,-4.36371 13.02429,-4.89131 4.01624,-0.34322 16.01979,-0.3782 16.54083,-0.0482 0.28633,0.18134 0.0704,0.59716 -0.99211,1.91026 -2.45772,3.03745 -3.47441,5.36289 -8.54543,19.54568 -4.07799,11.40544 -5.50606,15.01995 -7.38613,18.6946 -4.42761,8.65393 -9.96007,13.86931 -16.50468,15.55875 -1.74252,0.44981 -6.72689,0.51637 -8.44607,0.11277 z"
         id="path7-1-3-6-1"
         sodipodi:nodetypes="ccssscsssssssssssssssssssscsssssssscssssscsssssssssscscssssssscsssssssscsssssssssssccsscssscssccsssssssssssscsssssssssssssssssssssssssssss" /><path
         style="fill:#ffffff;fill-opacity:1;stroke:none;stroke-width:0.5715;stroke-opacity:1"
         d="m -287.17918,282.00272 c -8.52019,-1.21298 -15.95993,-5.89971 -20.63273,-12.99776 -4.34796,-6.60461 -5.5888,-14.61746 -3.48322,-22.49326 0.54769,-2.04858 0.60689,-2.11036 1.51681,-1.58281 0.39828,0.23091 1.21747,0.65825 1.82042,0.94963 0.60294,0.29139 1.09627,0.59881 1.09627,0.68316 0,0.0843 -0.1099,0.59083 -0.2442,1.12552 -0.28031,1.11589 -0.21698,1.52427 0.33877,2.18476 1.07247,1.27455 2.3756,1.38191 4.45268,0.36683 6.34337,-3.10004 12.66789,-4.42297 20.31503,-4.24942 6.56294,0.14895 11.46845,1.29865 17.36225,4.06917 2.64177,1.24182 3.61373,1.22382 4.76578,-0.0883 0.64918,-0.73937 0.70301,-1.03011 0.4112,-2.22086 -0.30143,-1.22999 -0.25448,-1.42153 0.41714,-1.70216 0.27682,-0.11566 1.03205,-0.53126 1.6783,-0.92357 1.39425,-0.84636 1.43725,-0.83024 1.89119,0.70879 2.01969,6.84749 1.3982,14.43216 -1.67344,20.42271 -4.106,8.00781 -11.44484,13.59804 -20.30449,15.46657 -2.33792,0.49307 -7.24289,0.63476 -9.72776,0.281 z m -0.0234,-4.68343 c 0.28107,-0.33866 0.1064,-3.61402 -0.27815,-5.21615 -1.76934,-7.37131 -6.12438,-11.62879 -13.86174,-13.5512 -1.07506,-0.2671 -2.1245,-0.40108 -3.63099,-0.46354 -2.63816,-0.10938 -2.61665,-0.12435 -2.19432,1.52694 1.9957,7.80309 7.85885,14.12217 15.65392,16.8712 1.06251,0.37471 3.3408,0.96912 4.02633,1.05049 0.0522,0.006 0.18042,-0.0918 0.28495,-0.21774 z m 10.92165,-0.39688 c 7.19616,-2.1233 12.67936,-6.90275 15.65103,-13.64227 0.83278,-1.88871 1.6006,-4.76841 1.35143,-5.06863 -0.28458,-0.3429 -3.89683,-0.13147 -5.77376,0.33795 -6.67145,1.66852 -10.79468,4.9862 -12.94343,10.41467 -0.96257,2.43181 -1.64378,6.7717 -1.2864,8.19559 0.0975,0.38858 0.13172,0.40122 0.81503,0.30144 0.39227,-0.0573 1.37602,-0.29973 2.1861,-0.53875 z m -5.1019,-15.36061 c 2.0136,-0.63893 3.44304,-2.35134 3.86409,-4.62903 0.45101,-2.43974 -1.03741,-5.14534 -3.44787,-6.26739 -1.24932,-0.58155 -3.35079,-0.58809 -4.57448,-0.0142 -1.23855,0.58083 -2.32887,1.64249 -2.90583,2.82944 -0.45171,0.92929 -0.49036,1.12675 -0.49325,2.52038 -0.003,1.32793 0.0462,1.6174 0.40212,2.37672 1.29942,2.77239 4.27696,4.09742 7.15522,3.18412 z m -25.49066,-16.12167 c -0.89574,-0.3685 -1.6838,-0.79496 -2.97767,-1.61139 -0.76461,-0.48246 -0.80544,-0.49139 -1.0041,-0.2197 -0.17482,0.23907 -0.26641,0.25617 -0.58784,0.10971 -0.80053,-0.36474 -2.06213,-2.74318 -2.0672,-3.8972 -0.003,-0.63265 0.0741,-0.81517 0.93548,-2.22202 0.38583,-0.63014 0.55314,-1.10863 0.6237,-1.78368 0.12103,-1.15804 0.24271,-1.38058 1.31977,-2.41392 0.76976,-0.73851 0.88634,-0.92852 0.97831,-1.59447 0.21097,-1.52744 0.8137,-2.16999 2.24315,-2.39133 0.69513,-0.10763 1.01144,-0.36974 1.70368,-1.41174 0.61767,-0.92975 1.34096,-1.3325 2.18881,-1.21878 0.62218,0.0835 4.34571,2.08878 5.54378,2.98563 0.88044,0.65909 0.96963,1.0973 0.41566,2.04255 -0.49094,0.83773 -0.27448,0.87392 0.41427,0.0693 0.64626,-0.75501 0.77396,-0.75464 1.07713,0.003 0.30299,0.75724 0.31206,1.69337 0.0218,2.25458 -0.21373,0.41331 -1.05229,1.22018 -1.26811,1.22018 -0.058,0 -0.52054,-0.40122 -1.02794,-0.8916 -0.90521,-0.87485 -4.37808,-3.31532 -4.91917,-3.45682 -0.62786,-0.16418 -0.18746,0.33061 1.19922,1.34736 2.67577,1.96192 2.88006,2.33046 2.07377,3.74097 -0.20886,0.36536 -0.34342,0.70062 -0.29902,0.74502 0.13062,0.13062 0.94716,-0.72654 1.14339,-1.20028 0.38142,-0.92083 1.05111,-0.13261 1.05111,1.23715 0,1.24129 -0.85537,2.41067 -1.76224,2.40918 -0.1535,-2.5e-4 -0.89757,-0.45955 -1.65349,-1.02066 -3.4502,-2.56107 -4.83478,-3.48037 -4.99722,-3.31792 -0.15774,0.15773 0.21249,0.49784 2.21098,2.03106 2.04566,1.56943 2.17879,1.80015 1.69691,2.94074 -0.18168,0.43001 -0.29869,0.81348 -0.26004,0.85214 0.12897,0.12897 0.54992,-0.32391 0.85265,-0.91731 0.34379,-0.67388 0.62889,-0.69539 1.08645,-0.082 0.64418,0.86365 0.31217,2.2225 -0.69784,2.85613 -0.98068,0.61522 -1.8584,0.23335 -5.18134,-2.25424 -1.67787,-1.25608 -2.1819,-1.50874 -2.1819,-1.09372 0,0.0699 0.74708,0.74594 1.66019,1.50221 1.87164,1.5502 1.99165,1.77158 1.52823,2.81923 -0.17349,0.39221 -0.31544,0.74902 -0.31544,0.79292 0,0.22987 0.59961,-0.51094 0.83367,-1.03 0.31807,-0.70534 0.42453,-0.72517 1.17073,-0.21812 0.69188,0.47015 0.82636,0.93006 0.48334,1.65294 -0.48786,1.02808 -1.7171,1.26777 -3.25567,0.63482 z m 44.52611,0.21417 c -0.50562,-0.21723 -0.96594,-0.91158 -0.96594,-1.45706 0,-0.39084 0.12114,-0.59768 0.56369,-0.96247 0.73028,-0.60196 0.88018,-0.58632 1.24559,0.12995 0.322,0.63117 0.7586,1.05414 0.54346,0.52649 -0.0649,-0.15918 -0.15278,-0.57343 -0.19528,-0.92056 -0.0887,-0.7249 -0.12114,-0.68493 1.97131,-2.43289 0.72312,-0.60407 1.31477,-1.16544 1.31477,-1.24748 0,-0.35596 -0.56407,-0.0768 -1.93522,0.95755 -3.89045,2.93499 -4.64483,3.19023 -5.85429,1.98077 -0.69495,-0.69495 -0.75218,-1.73822 -0.13554,-2.47105 0.50022,-0.59447 0.7623,-0.58776 1.02212,0.0262 0.11439,0.27029 0.3558,0.62318 0.53647,0.7842 l 0.3285,0.29277 -0.3043,-0.67079 c -0.57781,-1.27366 -0.42187,-1.5789 1.5855,-3.10349 1.62198,-1.23188 2.33741,-1.86126 2.33741,-2.05627 0,-0.26562 -0.38309,-0.0922 -1.34239,0.60754 -0.55075,0.40176 -1.55092,1.11259 -2.2226,1.57963 -0.67169,0.46704 -1.55502,1.12498 -1.96295,1.46207 -0.83766,0.69221 -1.13846,0.74203 -1.85231,0.30681 -0.97419,-0.59395 -1.38405,-2.30542 -0.78671,-3.28512 0.37547,-0.61583 0.55304,-0.61775 0.87814,-0.01 0.29305,0.54827 0.92144,1.24839 1.02633,1.14349 0.0385,-0.0385 -0.10091,-0.36891 -0.30976,-0.73428 -0.76854,-1.34446 -0.58462,-1.68021 1.96036,-3.57864 1.39045,-1.03721 1.86575,-1.54634 1.44358,-1.54634 -0.35837,0 -4.3534,2.81912 -5.08977,3.59164 l -0.78048,0.81878 -0.47731,-0.24683 c -1.00123,-0.51775 -1.35783,-1.923 -0.82555,-3.25328 0.30365,-0.75891 0.43056,-0.75842 1.08331,0.004 0.65954,0.77052 0.73012,0.7073 0.25597,-0.22928 -0.48056,-0.94922 -0.47362,-1.01901 0.15628,-1.57207 1.2902,-1.13282 5.35217,-3.34729 6.13828,-3.34643 0.72778,5.8e-4 1.4234,0.47865 1.95538,1.34323 0.54698,0.88895 0.9482,1.17471 1.95145,1.38987 1.26358,0.27099 1.77631,0.92506 2.05319,2.61915 0.0749,0.45823 0.29253,0.77851 0.97612,1.43649 0.90271,0.86887 0.98917,1.05147 1.3544,2.86036 0.0893,0.44215 0.37926,1.11924 0.64442,1.50463 0.69939,1.01653 0.88915,1.6635 0.71511,2.43811 -0.3076,1.36902 -1.65242,3.49426 -2.21111,3.49426 -0.10956,0 -0.32937,-0.0813 -0.48846,-0.18065 -0.24521,-0.15313 -0.42336,-0.0944 -1.16982,0.38586 -2.24366,1.44342 -4.1455,2.04402 -5.13135,1.62048 z m -35.48968,-4.45436 c -0.78607,-0.78606 -0.84668,-1.31102 -0.23982,-2.07724 0.48803,-0.61619 0.89267,-1.78347 0.89267,-2.5751 0,-0.31426 0.14998,-0.51141 0.63876,-0.83968 0.57076,-0.38332 0.88266,-0.74591 1.41373,-1.64346 0.21936,-0.37073 0.89941,-0.0948 1.7136,0.69538 1.11134,1.07852 1.01387,1.92857 -0.41498,3.61902 -0.55405,0.6555 -1.19279,1.50491 -1.41942,1.88759 -0.50315,0.84957 -0.77547,0.97159 -1.30085,0.58288 -0.89882,-0.66501 -0.93459,-1.5305 -0.0958,-2.31846 0.30058,-0.28239 0.46578,-0.32204 1.0085,-0.24203 l 0.64904,0.0957 -0.35698,-0.30214 c -0.76994,-0.65169 -1.78159,-0.0583 -2.11064,1.23805 -0.2012,0.79266 -0.009,1.2706 0.68539,1.70819 0.58362,0.36756 0.56031,0.59131 -0.0681,0.65382 -0.36541,0.0363 -0.58049,-0.0679 -0.99503,-0.4825 z m 26.96328,-0.0898 c -0.29108,-0.31696 -0.69934,-0.90137 -0.90726,-1.2987 -0.20791,-0.39734 -0.63695,-0.96016 -0.95342,-1.25074 -1.7047,-1.56519 -1.71009,-3.11144 -0.015,-4.29101 0.78794,-0.54829 1.06977,-0.53038 1.32661,0.0843 0.11609,0.27785 0.59331,0.83518 1.06049,1.23851 0.68596,0.59221 0.84958,0.82236 0.85026,1.19592 10e-4,0.77991 0.28887,1.55685 0.84604,2.28679 0.64516,0.8452 0.60286,1.32788 -0.18546,2.11619 -0.72036,0.72037 -1.30778,0.69675 -2.02231,-0.0813 z m -24.02264,-8.36061 c -0.094,-0.094 -0.17085,-0.26644 -0.17085,-0.38327 0,-0.39151 -0.77109,-1.76289 -1.29548,-2.30404 -0.28547,-0.29458 -0.51904,-0.61711 -0.51904,-0.71673 0,-0.38082 4.29168,-2.09912 6.71425,-2.68826 6.35822,-1.54622 13.07056,-0.87956 19.07501,1.8945 1.29935,0.6003 1.55087,0.90615 0.99141,1.20556 -0.40609,0.21733 -1.16798,1.41861 -1.46293,2.30662 -0.29753,0.89578 -0.17663,0.90005 -2.5915,-0.0916 -6.41355,-2.63371 -13.09353,-2.44313 -19.72021,0.56263 -0.63168,0.28652 -0.89366,0.34161 -1.02066,0.2146 z"
         id="path8-1-5-3" /></g></g></svg>
